# xmcd CD database file
#
# Track frame offsets:
#	150
#	13051
#	25407
#	35509
#	51000
#	66883
#	86337
#	99307
#	118787
#	130987
#	141129
#	157425
#
# Disc length: 2208 seconds
#
# Revision: 0
# Processed by: cddbd v1.5.1PL0 Copyright (c) Steve Scherf et al.
# Submitted via: CDex 1.50
#
DISCID=a5089e0c
DTITLE=Blossom Dearie - Soubrette
DYEAR=1960
DGENRE=Jazz
TTITLE0=Guys and Dolls
TTITLE1=Confession
TTITLE2=Rhode Island Is Famous for You
TTITLE3=To Keep My Love Alive
TTITLE4=Too Good for the Average Man
TTITLE5=The Gentleman Is a Dope
TTITLE6=Always True to You In My Fashoin
TTITLE7=Napoleon
TTITLE8=Life Upon the Wicked Stage
TTITLE9=The Physician
TTITLE10=Love Is the Reason
TTITLE11=Buckle Down, Winsocki
EXTD=YEAR: 1960
EXTT0=
EXTT1=
EXTT2=
EXTT3=
EXTT4=
EXTT5=
EXTT6=
EXTT7=
EXTT8=
EXTT9=
EXTT10=
EXTT11=
PLAYORDER=
